<svg xmlns="http://www.w3.org/2000/svg" width="1280" height="1240" viewBox="0 0 1280 1240"
     font-family="-apple-system, system-ui, sans-serif" fill="#fff" stroke="#000" stroke-width="1.5">
  <rect x="0" y="0" width="1280" height="1240" />

  <!-- 1: top bar / app chrome -->
  <g data-region="topbar">
    <rect x="0" y="0" width="1280" height="56" />
    <text x="24" y="34" font-size="14" stroke="none" fill="#000">Paperclip · Acme AI Co.</text>
    <line x1="220" y1="20" x2="220" y2="36" />
    <text x="240" y="34" font-size="12" stroke="none" fill="#666">Company › Settings › Access</text>
    <g transform="translate(1144,12)">
      <rect width="112" height="32" rx="4" />
      <text x="56" y="20" font-size="12" stroke="none" fill="#000" text-anchor="middle">+ Invite</text>
    </g>
  </g>

  <!-- 2: side nav -->
  <g data-region="sidenav" transform="translate(0,56)">
    <rect x="0" y="0" width="216" height="1184" />
    <text x="24" y="32" font-size="12" stroke="none" fill="#666">SETTINGS</text>
    <g font-size="14" stroke="none" fill="#000">
      <text x="24" y="64">General</text>
      <text x="24" y="96">Branding</text>
      <text x="24" y="128">Environments</text>
      <text x="24" y="160">Secrets</text>
      <text x="24" y="192">Budgets</text>
    </g>
    <rect x="8" y="208" width="200" height="32" fill="#e6e6e6" stroke="none" />
    <text x="24" y="228" font-size="14" stroke="none" fill="#000">Access</text>
    <g font-size="14" stroke="none" fill="#000">
      <text x="24" y="264">Approvals</text>
      <text x="24" y="296">Activity log</text>
    </g>
  </g>

  <!-- 3: header -->
  <g data-region="header" transform="translate(248,80)">
    <text x="0" y="32" font-size="28" stroke="none" fill="#000">Company access</text>
    <text x="0" y="64" font-size="14" stroke="none" fill="#666">Manage humans, agents, roles, and scoped grants for Acme AI Co.</text>
  </g>

  <!-- 4: tabs -->
  <g data-region="tabs" transform="translate(248,168)">
    <line x1="0" y1="40" x2="1000" y2="40" />
    <g font-size="14" stroke="none">
      <text x="0" y="24" fill="#000" font-weight="600">Members</text>
      <line x1="-4" y1="40" x2="76" y2="40" stroke="#000" stroke-width="2.5" />
      <text x="120" y="24" fill="#666">Roles &amp; implicit grants</text>
      <text x="316" y="24" fill="#666">Invites</text>
      <text x="408" y="24" fill="#666">Join requests · 2</text>
    </g>
  </g>

  <!-- 5: visibility note -->
  <g data-region="visibility-banner" transform="translate(248,232)">
    <rect width="1000" height="72" rx="4" />
    <g transform="translate(20,28)">
      <text x="0" y="0" font-size="14" stroke="none" fill="#000" font-weight="600">Roles and grants control who can act — not what they see.</text>
      <circle cx="378" cy="-6" r="8" fill="#fff" stroke="#666" />
      <text x="378" y="-2" font-size="11" stroke="none" fill="#666" text-anchor="middle">?</text>
    </g>
    <text x="20" y="48" font-size="13" stroke="none" fill="#666">Use them to decide who can assign tasks, manage agents, or edit config. Issues, comments, and projects stay</text>
    <text x="20" y="64" font-size="13" stroke="none" fill="#666">visible to the whole company so the board can audit work.</text>
    <text x="936" y="44" font-size="12" stroke="none" fill="#666" text-anchor="end">Learn more →</text>
  </g>

  <!-- 6: roles explainer (compact) -->
  <g data-region="role-cheatsheet" transform="translate(248,328)">
    <text x="0" y="16" font-size="12" stroke="none" fill="#666">WHAT ROLES INCLUDE BY DEFAULT</text>
    <g transform="translate(0,28)">
      <rect width="1000" height="88" rx="4" />
      <g font-size="13" stroke="none" fill="#000">
        <text x="20" y="28" font-weight="600">Owner</text>
        <text x="20" y="48" fill="#666">Create agents · Invite · Manage members · Assign tasks · Approve joins</text>
        <text x="20" y="68" fill="#666">Implicit. Add explicit grants only as overrides.</text>
      </g>
      <line x1="250" y1="12" x2="250" y2="76" />
      <g font-size="13" stroke="none" fill="#000" transform="translate(266,0)">
        <text x="0" y="28" font-weight="600">Admin</text>
        <text x="0" y="48" fill="#666">Create agents · Invite · Assign tasks · Approve joins</text>
      </g>
      <line x1="500" y1="12" x2="500" y2="76" />
      <g font-size="13" stroke="none" fill="#000" transform="translate(516,0)">
        <text x="0" y="28" font-weight="600">Operator</text>
        <text x="0" y="48" fill="#666">Assign tasks · Read company</text>
      </g>
      <line x1="750" y1="12" x2="750" y2="76" />
      <g font-size="13" stroke="none" fill="#000" transform="translate(766,0)">
        <text x="0" y="28" font-weight="600">Viewer</text>
        <text x="0" y="48" fill="#666">Read company. No mutations.</text>
      </g>
    </g>
  </g>

  <!-- 7: HUMANS section header -->
  <g data-region="humans-header" transform="translate(248,464)">
    <text x="0" y="20" font-size="20" stroke="none" fill="#000">Humans · 5</text>
    <text x="0" y="40" font-size="13" stroke="none" fill="#666">Human members with company memberships, status, and explicit grants.</text>
  </g>

  <!-- 8: HUMANS table -->
  <g data-region="humans-table" transform="translate(248,520)">
    <rect width="1000" height="248" rx="4" />
    <!-- column header row -->
    <g transform="translate(0,0)">
      <line x1="0" y1="40" x2="1000" y2="40" />
      <g font-size="11" stroke="none" fill="#666">
        <text x="20" y="26">USER</text>
        <text x="380" y="26">ROLE</text>
        <text x="490" y="26">STATUS</text>
        <text x="600" y="26">GRANTS</text>
        <text x="970" y="26" text-anchor="end">ACTION</text>
      </g>
    </g>
    <!-- row 1 -->
    <g transform="translate(0,40)">
      <line x1="0" y1="56" x2="1000" y2="56" />
      <g stroke="none">
        <text x="20" y="26" font-size="14" fill="#000">Maya Chen</text>
        <text x="20" y="44" font-size="12" fill="#666">maya@acme.ai · you</text>
        <text x="380" y="32" font-size="13" fill="#000">Owner</text>
        <g transform="translate(490,18)"><rect width="80" height="22" rx="11" /><text x="40" y="15" font-size="11" fill="#000" text-anchor="middle">active</text></g>
        <text x="600" y="32" font-size="13" fill="#666">Implicit (Owner) · no overrides</text>
      </g>
      <g transform="translate(848,16)">
        <rect width="56" height="24" rx="3" /><text x="28" y="16" font-size="11" stroke="none" fill="#000" text-anchor="middle">Edit</text>
        <rect x="64" width="80" height="24" rx="3" /><text x="104" y="16" font-size="11" stroke="none" fill="#000" text-anchor="middle">Remove</text>
      </g>
    </g>
    <!-- row 2 -->
    <g transform="translate(0,96)">
      <line x1="0" y1="56" x2="1000" y2="56" />
      <g stroke="none">
        <text x="20" y="26" font-size="14" fill="#000">Jordan Park</text>
        <text x="20" y="44" font-size="12" fill="#666">jordan@acme.ai</text>
        <text x="380" y="32" font-size="13" fill="#000">Admin</text>
        <g transform="translate(490,18)"><rect width="80" height="22" rx="11" /><text x="40" y="15" font-size="11" fill="#000" text-anchor="middle">active</text></g>
        <text x="600" y="32" font-size="13" fill="#000">tasks:assign_scope</text>
        <g transform="translate(600,40)">
          <rect width="220" height="18" rx="3" fill="#e6e6e6" stroke="#666" />
          <text x="8" y="13" font-size="10" stroke="none" fill="#000">Project: Onboarding · Agents: 3</text>
        </g>
      </g>
      <g transform="translate(848,16)">
        <rect width="56" height="24" rx="3" /><text x="28" y="16" font-size="11" stroke="none" fill="#000" text-anchor="middle">Edit</text>
        <rect x="64" width="80" height="24" rx="3" /><text x="104" y="16" font-size="11" stroke="none" fill="#000" text-anchor="middle">Remove</text>
      </g>
    </g>
    <!-- row 3 -->
    <g transform="translate(0,152)">
      <line x1="0" y1="56" x2="1000" y2="56" />
      <g stroke="none">
        <text x="20" y="26" font-size="14" fill="#000">Sam Rivera</text>
        <text x="20" y="44" font-size="12" fill="#666">sam@acme.ai</text>
        <text x="380" y="32" font-size="13" fill="#000">Operator</text>
        <g transform="translate(490,18)"><rect width="80" height="22" rx="11" /><text x="40" y="15" font-size="11" fill="#000" text-anchor="middle">pending</text></g>
        <text x="600" y="32" font-size="13" fill="#666">No explicit grants</text>
      </g>
      <g transform="translate(848,16)">
        <rect width="56" height="24" rx="3" /><text x="28" y="16" font-size="11" stroke="none" fill="#000" text-anchor="middle">Edit</text>
        <rect x="64" width="80" height="24" rx="3" /><text x="104" y="16" font-size="11" stroke="none" fill="#000" text-anchor="middle">Remove</text>
      </g>
    </g>
    <!-- row 4 -->
    <g transform="translate(0,208)">
      <g stroke="none">
        <text x="20" y="26" font-size="14" fill="#000">Priya Shah</text>
        <text x="20" y="44" font-size="12" fill="#666">priya@acme.ai</text>
        <text x="380" y="32" font-size="13" fill="#000">Viewer</text>
        <g transform="translate(490,18)"><rect width="80" height="22" rx="11" /><text x="40" y="15" font-size="11" fill="#000" text-anchor="middle">suspended</text></g>
        <text x="600" y="32" font-size="13" fill="#666">No explicit grants</text>
      </g>
      <g transform="translate(848,16)">
        <rect width="56" height="24" rx="3" /><text x="28" y="16" font-size="11" stroke="none" fill="#000" text-anchor="middle">Edit</text>
        <rect x="64" width="80" height="24" rx="3" /><text x="104" y="16" font-size="11" stroke="none" fill="#000" text-anchor="middle">Remove</text>
      </g>
    </g>
  </g>

  <!-- 9: AGENTS section header -->
  <g data-region="agents-header" transform="translate(248,800)">
    <text x="0" y="20" font-size="20" stroke="none" fill="#000">Agents · 7</text>
    <text x="0" y="40" font-size="13" stroke="none" fill="#666">Profile visibility, config redaction, who can assign, who can invoke, and escalation chain.</text>
    <text x="1000" y="32" font-size="12" stroke="none" fill="#000" text-anchor="end">Manage agent permissions →</text>
  </g>

  <!-- 10: AGENTS table -->
  <g data-region="agents-table" transform="translate(248,856)">
    <rect width="1000" height="304" rx="4" />
    <g transform="translate(0,0)">
      <line x1="0" y1="40" x2="1000" y2="40" />
      <g font-size="11" stroke="none" fill="#666">
        <text x="20" y="26">AGENT</text>
        <text x="290" y="26">ROLE / REPORTS TO</text>
        <text x="490" y="26">PROFILE</text>
        <text x="580" y="26">CONFIG</text>
        <text x="680" y="26">ASSIGN-TO</text>
        <text x="800" y="26">INVOKE</text>
        <text x="970" y="26" text-anchor="end">ACTION</text>
      </g>
    </g>
    <!-- agent row 1 -->
    <g transform="translate(0,40)">
      <line x1="0" y1="56" x2="1000" y2="56" />
      <g stroke="none">
        <text x="20" y="26" font-size="14" fill="#000">CEO · Helios</text>
        <text x="20" y="44" font-size="12" fill="#666">claude-opus · process adapter</text>
        <text x="290" y="32" font-size="13" fill="#000">CEO · board</text>
        <text x="490" y="32" font-size="13" fill="#000">Company</text>
        <text x="580" y="32" font-size="13" fill="#000">Redacted</text>
        <text x="680" y="32" font-size="13" fill="#000">Board, owners</text>
        <text x="800" y="32" font-size="13" fill="#000">Board only</text>
      </g>
      <g transform="translate(900,16)"><rect width="80" height="24" rx="3" /><text x="40" y="16" font-size="11" stroke="none" fill="#000" text-anchor="middle">Details</text></g>
    </g>
    <!-- agent row 2 -->
    <g transform="translate(0,96)">
      <line x1="0" y1="56" x2="1000" y2="56" />
      <g stroke="none">
        <text x="20" y="26" font-size="14" fill="#000">CTO · Atlas</text>
        <text x="20" y="44" font-size="12" fill="#666">claude-sonnet · process adapter</text>
        <text x="290" y="32" font-size="13" fill="#000">CTO · reports CEO</text>
        <text x="490" y="32" font-size="13" fill="#000">Company</text>
        <text x="580" y="32" font-size="13" fill="#000">Redacted</text>
        <text x="680" y="32" font-size="13" fill="#000">CEO, owners</text>
        <text x="800" y="32" font-size="13" fill="#000">Manager+</text>
      </g>
      <g transform="translate(900,16)"><rect width="80" height="24" rx="3" /><text x="40" y="16" font-size="11" stroke="none" fill="#000" text-anchor="middle">Details</text></g>
    </g>
    <!-- agent row 3 - private -->
    <g transform="translate(0,152)">
      <line x1="0" y1="56" x2="1000" y2="56" />
      <g stroke="none">
        <text x="20" y="26" font-size="14" fill="#000">Researcher · Vega</text>
        <g transform="translate(160,12)"><rect width="58" height="20" rx="3" fill="#e6e6e6" stroke="#666" /><text x="29" y="14" font-size="10" stroke="none" fill="#000" text-anchor="middle">private</text></g>
        <text x="20" y="44" font-size="12" fill="#666">claude-haiku · http adapter</text>
        <text x="290" y="32" font-size="13" fill="#000">Researcher · CTO</text>
        <text x="490" y="32" font-size="13" fill="#000">Board-only</text>
        <text x="580" y="32" font-size="13" fill="#000">Board-only</text>
        <text x="680" y="32" font-size="13" fill="#000">CTO, owners</text>
        <text x="800" y="32" font-size="13" fill="#000">CTO only</text>
      </g>
      <g transform="translate(900,16)"><rect width="80" height="24" rx="3" /><text x="40" y="16" font-size="11" stroke="none" fill="#000" text-anchor="middle">Details</text></g>
    </g>
    <!-- agent row 4 -->
    <g transform="translate(0,208)">
      <line x1="0" y1="56" x2="1000" y2="56" />
      <g stroke="none">
        <text x="20" y="26" font-size="14" fill="#000">Engineer · Ada</text>
        <text x="20" y="44" font-size="12" fill="#666">claude-sonnet · process adapter</text>
        <text x="290" y="32" font-size="13" fill="#000">Engineer · CTO</text>
        <text x="490" y="32" font-size="13" fill="#000">Company</text>
        <text x="580" y="32" font-size="13" fill="#000">Redacted</text>
        <text x="680" y="32" font-size="13" fill="#000">CTO, scoped</text>
        <text x="800" y="32" font-size="13" fill="#000">Manager+</text>
      </g>
      <g transform="translate(900,16)"><rect width="80" height="24" rx="3" /><text x="40" y="16" font-size="11" stroke="none" fill="#000" text-anchor="middle">Details</text></g>
    </g>
    <!-- footer empty/load more -->
    <g transform="translate(0,264)">
      <text x="500" y="26" font-size="13" stroke="none" fill="#666" text-anchor="middle">3 more agents — view all →</text>
    </g>
  </g>

  <!-- annotation callouts -->
  <g data-region="annotations" stroke="#d33" stroke-dasharray="4 3" fill="none">
    <circle cx="270" cy="262" r="12" />
    <circle cx="270" cy="568" r="12" />
    <circle cx="270" cy="872" r="12" />
    <circle cx="822" cy="592" r="12" />
  </g>
  <g font-size="11" stroke="none" fill="#d33">
    <text x="288" y="266">1</text>
    <text x="288" y="572">2</text>
    <text x="288" y="876">3</text>
    <text x="838" y="596">4</text>
  </g>
</svg>
